<?xml version="1.0" ?><svg height="32" id="svg4050" version="1.1" viewBox="0 0 32 32.000001" width="32" xmlns="http://www.w3.org/2000/svg" xmlns:cc="http://creativecommons.org/ns#" xmlns:dc="http://purl.org/dc/elements/1.1/" xmlns:inkscape="http://www.inkscape.org/namespaces/inkscape" xmlns:rdf="http://www.w3.org/1999/02/22-rdf-syntax-ns#" xmlns:sodipodi="http://sodipodi.sourceforge.net/DTD/sodipodi-0.dtd" xmlns:svg="http://www.w3.org/2000/svg"><defs id="defs4052"/><g id="layer1" transform="translate(0,-1020.3622)"><path d="M 2.4921875 1.9941406 A 0.50005 0.50005 0 0 0 2.4238281 2 A 0.50005 0.50005 0 0 0 2.2363281 2.0703125 A 0.50005 0.50005 0 0 0 2.1230469 2.1679688 A 0.50005 0.50005 0 0 0 2 2.5 L 2 28 C 2 29.0993 2.900602 30 4 30 L 23.5 30 A 0.50005 0.50005 0 0 0 23.613281 29.986328 A 0.50005 0.50005 0 0 0 23.662109 29.972656 A 0.50005 0.50005 0 0 0 23.904297 29.802734 L 29.808594 23.898438 A 0.50005 0.50005 0 0 0 29.980469 23.640625 A 0.50005 0.50005 0 0 0 29.992188 23.591797 A 0.50005 0.50005 0 0 0 29.994141 23.583984 A 0.50005 0.50005 0 0 0 29.998047 23.541016 A 0.50005 0.50005 0 0 0 30 23.5 A 0.50005 0.50005 0 0 0 30 23.492188 L 30 2.5 A 0.50005 0.50005 0 0 0 29.492188 1.9941406 A 0.50005 0.50005 0 0 0 29.142578 2.1464844 A 0.50005 0.50005 0 0 0 29.109375 2.1835938 A 0.50005 0.50005 0 0 0 29.074219 2.2304688 L 27.248047 4.6679688 L 25.398438 2.2011719 A 0.50005 0.50005 0 0 0 24.599609 2.2011719 L 22.75 4.6679688 L 20.902344 2.2011719 A 0.50005 0.50005 0 0 0 20.501953 2 L 20.494141 2 A 0.50005 0.50005 0 0 0 20.09375 2.2011719 L 18.246094 4.6679688 L 16.396484 2.2011719 A 0.50005 0.50005 0 0 0 15.595703 2.2011719 L 13.748047 4.6660156 L 11.900391 2.2011719 A 0.50005 0.50005 0 0 0 11.099609 2.2011719 L 9.2519531 4.6660156 L 7.4042969 2.2011719 A 0.50005 0.50005 0 0 0 6.6035156 2.2011719 L 4.7539062 4.6679688 L 2.9160156 2.2148438 A 0.50005 0.50005 0 0 0 2.90625 2.2011719 A 0.50005 0.50005 0 0 0 2.8867188 2.1757812 A 0.50005 0.50005 0 0 0 2.875 2.1621094 A 0.50005 0.50005 0 0 0 2.8515625 2.1386719 A 0.50005 0.50005 0 0 0 2.8144531 2.1054688 A 0.50005 0.50005 0 0 0 2.8007812 2.09375 A 0.50005 0.50005 0 0 0 2.7753906 2.0761719 A 0.50005 0.50005 0 0 0 2.7597656 2.0664062 A 0.50005 0.50005 0 0 0 2.7324219 2.0507812 A 0.50005 0.50005 0 0 0 2.7148438 2.0429688 A 0.50005 0.50005 0 0 0 2.671875 2.0234375 A 0.50005 0.50005 0 0 0 2.6699219 2.0234375 A 0.50005 0.50005 0 0 0 2.6386719 2.0136719 A 0.50005 0.50005 0 0 0 2.6210938 2.0097656 A 0.50005 0.50005 0 0 0 2.5722656 2 A 0.50005 0.50005 0 0 0 2.5234375 1.9941406 A 0.50005 0.50005 0 0 0 2.4921875 1.9941406 z M 20.498047 3.328125 L 22.351562 5.8007812 A 0.50005 0.50005 0 0 0 23.150391 5.8007812 L 25 3.3339844 L 26.847656 5.8007812 A 0.50005 0.50005 0 0 0 27.648438 5.8007812 L 29 3.9980469 L 29 23 L 25.300781 23 C 24.035255 23 23 24.035281 23 25.300781 L 23 29 L 4 29 C 3.4373788 29 3 28.5625 3 28 L 3 3.9921875 L 4.3554688 5.8007812 A 0.50005 0.50005 0 0 0 5.1542969 5.8007812 L 7.0039062 3.3339844 L 8.8515625 5.8007812 A 0.50005 0.50005 0 0 0 9.6523438 5.8007812 L 11.5 3.3359375 L 13.347656 5.8007812 A 0.50005 0.50005 0 0 0 14.148438 5.8007812 L 15.996094 3.3339844 L 17.845703 5.8007812 A 0.50005 0.50005 0 0 0 18.644531 5.8007812 L 20.498047 3.328125 z M 4.5 8 A 0.50004997 0.50004997 0 0 0 4 8.5 L 4 11.5 A 0.50004997 0.50004997 0 0 0 4.5 12 L 27.5 12 A 0.50004997 0.50004997 0 0 0 28 11.5 L 28 8.5 A 0.50004997 0.50004997 0 0 0 27.5 8 L 4.5 8 z M 5 9 L 27 9 L 27 11 L 5 11 L 5 9 z M 4.5 14 A 0.50005 0.50005 0 0 0 4 14.5 L 4 27.5 A 0.50005 0.50005 0 0 0 4.5 28 L 17.5 28 A 0.50005 0.50005 0 0 0 18 27.5 L 18 14.5 A 0.50005 0.50005 0 0 0 17.5 14 L 4.5 14 z M 5 15 L 17 15 L 17 27 L 5 27 L 5 15 z M 19.449219 16 A 0.50005 0.50005 0 0 0 19.5 17 L 19.507812 17 A 0.50005 0.50005 0 1 0 19.507812 16 L 19.5 16 A 0.50005 0.50005 0 0 0 19.449219 16 z M 21.449219 16 A 0.50005 0.50005 0 0 0 21.5 17 L 26.507812 17 A 0.50005 0.50005 0 1 0 26.507812 16 L 21.5 16 A 0.50005 0.50005 0 0 0 21.449219 16 z M 11.121094 17.001953 C 10.905951 16.995653 10.691412 17.007131 10.478516 17.035156 C 9.6269311 17.147256 8.8110975 17.532675 8.171875 18.171875 C 6.89337 19.450175 6.6311562 21.4341 7.5351562 23 C 8.439179 24.5657 10.288742 25.331381 12.035156 24.863281 C 13.781565 24.395481 14.999975 22.808 15 21 A 0.50005 0.50005 0 0 0 14.5 20.5 L 11 20.5 A 0.50005 0.50005 0 1 0 11 21.5 L 13.830078 21.5 C 13.623237 22.622 12.911285 23.594638 11.777344 23.898438 C 10.463486 24.250538 9.0824712 23.6779 8.4023438 22.5 C 7.7222022 21.3219 7.9171052 19.840606 8.8789062 18.878906 C 9.8407587 17.917106 11.322033 17.722144 12.5 18.402344 A 0.5005087 0.5005087 0 1 0 13 17.535156 C 12.412822 17.196081 11.766522 17.020853 11.121094 17.001953 z M 19.449219 18 A 0.50005 0.50005 0 0 0 19.5 19 L 19.507812 19 A 0.50005 0.50005 0 1 0 19.507812 18 L 19.5 18 A 0.50005 0.50005 0 0 0 19.449219 18 z M 21.449219 18 A 0.50005 0.50005 0 0 0 21.5 19 L 26.507812 19 A 0.50005 0.50005 0 1 0 26.507812 18 L 21.5 18 A 0.50005 0.50005 0 0 0 21.449219 18 z M 19.449219 20 A 0.50005 0.50005 0 0 0 19.5 21 L 19.507812 21 A 0.50005 0.50005 0 1 0 19.507812 20 L 19.5 20 A 0.50005 0.50005 0 0 0 19.449219 20 z M 21.449219 20 A 0.50005 0.50005 0 0 0 21.5 21 L 26.507812 21 A 0.50005 0.50005 0 1 0 26.507812 20 L 21.5 20 A 0.50005 0.50005 0 0 0 21.449219 20 z M 25.300781 24 L 28.292969 24 L 24 28.292969 L 24 25.300781 C 24 24.571981 24.571884 24 25.300781 24 z " id="rect4417" style="color:#000000;font-style:normal;font-variant:normal;font-weight:normal;font-stretch:normal;font-size:medium;line-height:normal;font-family:sans-serif;text-indent:0;text-align:start;text-decoration:none;text-decoration-line:none;text-decoration-style:solid;text-decoration-color:#000000;letter-spacing:normal;word-spacing:normal;text-transform:none;direction:ltr;block-progression:tb;writing-mode:lr-tb;baseline-shift:baseline;text-anchor:start;white-space:normal;clip-rule:nonzero;display:inline;overflow:visible;visibility:visible;opacity:1;isolation:auto;mix-blend-mode:normal;color-interpolation:sRGB;color-interpolation-filters:linearRGB;solid-color:#000000;solid-opacity:1;fill:#000000;fill-opacity:1;fill-rule:nonzero;stroke:none;stroke-width:1;stroke-linecap:round;stroke-linejoin:round;stroke-miterlimit:4.0999999;stroke-dasharray:none;stroke-dashoffset:0;stroke-opacity:1;color-rendering:auto;image-rendering:auto;shape-rendering:auto;text-rendering:auto;enable-background:accumulate" transform="translate(0,1020.3622)"/></g></svg>